<?xml version="1.0" encoding="utf-8"?>
<!-- Generator: Adobe Illustrator 19.2.1, SVG Export Plug-In . SVG Version: 6.00 Build 0)  -->
<svg version="1.1" id="Layer_1" xmlns="http://www.w3.org/2000/svg" xmlns:xlink="http://www.w3.org/1999/xlink" x="0px" y="0px"
	 viewBox="0 0 24.4 31.2" style="enable-background:new 0 0 24.4 31.2;" xml:space="preserve">
<path d="M20.3,17.8c-1.2,0.7-2.3,2-4.3,3.3c-2,1.3-2.9,2.2-4.1,2.2c-2.3,0-3.8-1.1-3.8-3.7c0-2.6,3-5,4.9-6c0.3-0.1,0.5-0.3,0.8-0.5
	c2.8-0.8,4.8-3.4,4.8-6.4c0-3.7-3-6.7-6.7-6.7c-1.2,0-2.3,0.3-3.3,0.9C6.2,2.1,3.5,5.5,1,12c-2.2,5.7-1.3,15.8,8.2,18.7
	c8.1,2.4,13.3-3.9,15.1-9.7C25.1,18.3,21.5,17.1,20.3,17.8z"/>
</svg>
